<svg width="32" height="32" viewBox="0 0 32 32" fill="none" xmlns="http://www.w3.org/2000/svg">
<mask id="path-1-inside-1" fill="white">
<path d="M28 16C28 13.2237 27.0374 10.5334 25.2761 8.38728C23.5149 6.2412 21.064 4.7722 18.3411 4.23058C15.6182 3.68895 12.7917 4.10822 10.3432 5.41694C7.89479 6.72567 5.97588 8.84287 4.91345 11.4078C3.85102 13.9727 3.71081 16.8267 4.51672 19.4834C5.32262 22.1401 7.02478 24.4352 9.33316 25.9776C11.6415 27.52 14.4133 28.2143 17.1762 27.9422C19.9391 27.6701 22.5222 26.4484 24.4853 24.4853L23.6368 23.6368C21.8699 25.4036 19.5452 26.5031 17.0586 26.748C14.572 26.9929 12.0774 26.368 9.99984 24.9799C7.9223 23.5917 6.39036 21.5261 5.66504 19.1351C4.93973 16.744 5.06591 14.1755 6.0221 11.867C6.97829 9.55858 8.70532 7.6531 10.9089 6.47525C13.1125 5.2974 15.6563 4.92006 18.107 5.40752C20.5576 5.89498 22.7634 7.21708 24.3485 9.14855C25.9336 11.08 26.8 13.5014 26.8 16H28Z"/>
</mask>
<path d="M28 16C28 13.2237 27.0374 10.5334 25.2761 8.38728C23.5149 6.2412 21.064 4.7722 18.3411 4.23058C15.6182 3.68895 12.7917 4.10822 10.3432 5.41694C7.89479 6.72567 5.97588 8.84287 4.91345 11.4078C3.85102 13.9727 3.71081 16.8267 4.51672 19.4834C5.32262 22.1401 7.02478 24.4352 9.33316 25.9776C11.6415 27.52 14.4133 28.2143 17.1762 27.9422C19.9391 27.6701 22.5222 26.4484 24.4853 24.4853L23.6368 23.6368C21.8699 25.4036 19.5452 26.5031 17.0586 26.748C14.572 26.9929 12.0774 26.368 9.99984 24.9799C7.9223 23.5917 6.39036 21.5261 5.66504 19.1351C4.93973 16.744 5.06591 14.1755 6.0221 11.867C6.97829 9.55858 8.70532 7.6531 10.9089 6.47525C13.1125 5.2974 15.6563 4.92006 18.107 5.40752C20.5576 5.89498 22.7634 7.21708 24.3485 9.14855C25.9336 11.08 26.8 13.5014 26.8 16H28Z" stroke="#F17171" stroke-width="2" mask="url(#path-1-inside-1)"/>
<mask id="path-2-inside-2" fill="white">
<path d="M27.5911 19.1058C27.3197 20.1188 26.9167 21.0918 26.3923 22L25.3531 21.4C25.825 20.5826 26.1877 19.7069 26.432 18.7952L27.5911 19.1058Z"/>
</mask>
<path d="M27.5911 19.1058C27.3197 20.1188 26.9167 21.0918 26.3923 22L25.3531 21.4C25.825 20.5826 26.1877 19.7069 26.432 18.7952L27.5911 19.1058Z" stroke="#F17171" stroke-width="2" mask="url(#path-2-inside-2)"/>
<path d="M11.7574 16H20.2426M20.2426 16L16 11.7574M20.2426 16L16 20.2426" stroke="#F17171"/>
</svg>
