<svg width="439" height="380" viewBox="0 0 439 380" fill="none" xmlns="http://www.w3.org/2000/svg">
<g clip-path="url(#clip0)">
<path d="M329.13 0H109.684L0 190.038L109.684 380H329.13L438.814 190.038L329.13 0Z" fill="url(#paint0_linear)"/>
<path d="M329.13 0H109.684L0 190.038L147.799 190.878L341.198 190.038H438.814L329.13 0Z" fill="url(#paint1_linear)"/>
<path d="M438.814 190.038L329.13 0L242.36 149.861C235.148 145.751 226.979 143.615 218.678 143.669C210.377 143.723 202.237 145.965 195.079 150.169C187.921 154.373 181.998 160.391 177.908 167.614C173.818 174.838 171.706 183.013 171.783 191.314C171.861 199.615 174.126 207.748 178.351 214.894C182.576 222.04 188.61 227.945 195.845 232.015C203.081 236.084 211.261 238.174 219.562 238.072C227.863 237.971 235.99 235.682 243.124 231.437L329.13 380L438.814 190.038Z" fill="#413951"/>
</g>
<defs>
<linearGradient id="paint0_linear" x1="259.011" y1="51.405" x2="186.448" y2="305.375" gradientUnits="userSpaceOnUse">
<stop stop-color="white"/>
<stop offset="0.02" stop-color="#FFFBFB"/>
<stop offset="0.36" stop-color="#F9C0C0"/>
<stop offset="0.64" stop-color="#F59595"/>
<stop offset="0.87" stop-color="#F27B7B"/>
<stop offset="1" stop-color="#F17171"/>
</linearGradient>
<linearGradient id="paint1_linear" x1="241.902" y1="232.048" x2="138.786" y2="39.1839" gradientUnits="userSpaceOnUse">
<stop stop-color="#A6D2DA"/>
<stop offset="0.24" stop-color="#A2D2DA"/>
<stop offset="0.47" stop-color="#97D2DA"/>
<stop offset="0.69" stop-color="#84D2DA"/>
<stop offset="0.9" stop-color="#69D2DA"/>
<stop offset="1" stop-color="#5BD2DA"/>
</linearGradient>
<clipPath id="clip0">
<rect width="438.814" height="380" fill="white"/>
</clipPath>
</defs>
</svg>
