<svg width="268" height="380" viewBox="0 0 268 380" fill="none" xmlns="http://www.w3.org/2000/svg">
<path d="M267.814 190.038L158.13 0L71.3598 149.861C64.1477 145.751 55.9792 143.615 47.6781 143.669C39.377 143.723 31.2369 145.965 24.079 150.169C16.921 154.373 10.9983 160.391 6.90832 167.614C2.8183 174.838 0.705596 183.013 0.78332 191.314C0.861043 199.615 3.12645 207.748 7.35102 214.894C11.5756 222.04 17.6099 227.945 24.8453 232.015C32.0807 236.084 40.2614 238.174 48.562 238.072C56.8627 237.971 64.9898 235.682 72.1236 231.437L158.13 380L267.814 190.038Z" fill="#413951"/>
</svg>
