<svg width="115" height="32" viewBox="0 0 115 32" fill="none" xmlns="http://www.w3.org/2000/svg">
<g clip-path="url(#clip0)">
<path d="M27.7162 0H9.23658L0 16.0032L9.23658 32H27.7162L36.9528 16.0032L27.7162 0Z" fill="url(#paint0_linear)"/>
<path d="M27.7162 0H9.23658L0 16.0032L12.4462 16.074L28.7325 16.0032H36.9528L27.7162 0Z" fill="url(#paint1_linear)"/>
<path d="M36.9528 16.0032L27.7162 0L20.4093 12.6199C19.8019 12.2737 19.1141 12.0939 18.415 12.0984C17.716 12.103 17.0305 12.2918 16.4277 12.6458C15.825 12.9998 15.3262 13.5066 14.9818 14.1149C14.6374 14.7232 14.4594 15.4116 14.466 16.1106C14.4725 16.8096 14.6633 17.4946 15.0191 18.0963C15.3748 18.6981 15.883 19.1954 16.4923 19.5381C17.1016 19.8808 17.7905 20.0567 18.4895 20.0482C19.1885 20.0396 19.8729 19.8469 20.4736 19.4894L27.7162 32L36.9528 16.0032Z" fill="#413951"/>
</g>
<path d="M52.6048 8H46.9531V23.3341H49.4723V18.0767H52.6048C55.4964 18.0767 57.687 15.8642 57.687 13.0383C57.687 10.1906 55.4964 8 52.6048 8ZM52.6048 15.7108H49.4723V10.3658H52.6048C54.0944 10.3658 55.1678 11.483 55.1678 13.0383C55.1678 14.5717 54.0944 15.7108 52.6048 15.7108Z" fill="white"/>
<path d="M61.8727 14.2212V12.3812H59.5069V23.3341H61.8727V17.8138C61.8727 15.3604 63.6909 14.6375 65.2462 14.747V12.184C63.8661 12.184 62.5299 12.7317 61.8727 14.2212Z" fill="white"/>
<path d="M68.3428 18.8653H77.0613C77.1051 18.5586 77.1489 18.2081 77.1489 17.8795C77.1489 14.7251 74.9145 12.0964 71.6505 12.0964C68.2113 12.0964 65.8674 14.6156 65.8674 17.8576C65.8674 21.1435 68.2113 23.6188 71.8258 23.6188C73.9726 23.6188 75.6155 22.7207 76.6232 21.2311L74.6735 20.092C74.1478 20.8587 73.1621 21.4502 71.8477 21.4502C70.0952 21.4502 68.7152 20.5739 68.3428 18.8653ZM68.3209 16.9376C68.6495 15.2946 69.8543 14.2432 71.6286 14.2432C73.0525 14.2432 74.4326 15.0537 74.7612 16.9376H68.3209Z" fill="white"/>
<path d="M84.3362 23.6188C86.483 23.6188 88.345 22.5016 89.265 20.7711L87.2278 19.6101C86.7021 20.6177 85.6287 21.2968 84.3143 21.2968C82.3866 21.2968 80.9189 19.8291 80.9189 17.8576C80.9189 15.8861 82.3866 14.4184 84.3143 14.4184C85.6287 14.4184 86.7021 15.0756 87.184 16.1051L89.2212 14.9222C88.345 13.2136 86.483 12.0964 84.3362 12.0964C81.0285 12.0964 78.5531 14.5936 78.5531 17.8576C78.5531 21.0997 81.0285 23.6188 84.3362 23.6188Z" fill="white"/>
<path d="M95.9737 23.6188C99.1938 23.6188 101.757 21.0997 101.757 17.8576C101.757 14.5936 99.1938 12.0964 95.9737 12.0964C92.7754 12.0964 90.1906 14.5936 90.1906 17.8576C90.1906 21.0997 92.7754 23.6188 95.9737 23.6188ZM95.9737 21.3187C94.046 21.3187 92.5564 19.851 92.5564 17.8576C92.5564 15.8642 94.046 14.3965 95.9737 14.3965C97.9014 14.3965 99.391 15.8642 99.391 17.8576C99.391 19.851 97.9014 21.3187 95.9737 21.3187Z" fill="white"/>
<path d="M112.615 12.3812V14.0022C111.782 12.8193 110.49 12.0964 108.803 12.0964C105.714 12.0964 103.283 14.6156 103.283 17.7481C103.283 20.8806 105.714 23.3998 108.803 23.3998C110.49 23.3998 111.782 22.6769 112.615 21.494V22.8302C112.615 24.736 111.388 25.8532 109.351 25.8532C107.445 25.8532 106.634 25.1084 106.152 24.1665L104.115 25.3494C105.035 27.1019 106.897 28 109.307 28C112.176 28 114.937 26.3571 114.937 22.8302V12.3812H112.615ZM109.132 21.1873C107.138 21.1873 105.649 19.7196 105.649 17.7481C105.649 15.7766 107.138 14.3089 109.132 14.3089C111.125 14.3089 112.615 15.7766 112.615 17.7481C112.615 19.7196 111.125 21.1873 109.132 21.1873Z" fill="white"/>
<defs>
<linearGradient id="paint0_linear" x1="21.8115" y1="4.32884" x2="15.7009" y2="25.7158" gradientUnits="userSpaceOnUse">
<stop stop-color="white"/>
<stop offset="0.02" stop-color="#FFFBFB"/>
<stop offset="0.36" stop-color="#F9C0C0"/>
<stop offset="0.64" stop-color="#F59595"/>
<stop offset="0.87" stop-color="#F27B7B"/>
<stop offset="1" stop-color="#F17171"/>
</linearGradient>
<linearGradient id="paint1_linear" x1="20.3707" y1="19.5409" x2="11.6872" y2="3.2997" gradientUnits="userSpaceOnUse">
<stop stop-color="#A6D2DA"/>
<stop offset="0.24" stop-color="#A2D2DA"/>
<stop offset="0.47" stop-color="#97D2DA"/>
<stop offset="0.69" stop-color="#84D2DA"/>
<stop offset="0.9" stop-color="#69D2DA"/>
<stop offset="1" stop-color="#5BD2DA"/>
</linearGradient>
<clipPath id="clip0">
<rect width="36.9528" height="32" fill="white"/>
</clipPath>
</defs>
</svg>
